<svg width="182" height="45" viewBox="0 0 182 45" fill="none" xmlns="http://www.w3.org/2000/svg">
<path d="M0 22.5C0 34.7657 10.9683 44.709 24.4985 44.709C24.4985 30.778 24.4986 33.9581 24.4986 21.6925C24.4986 9.42675 24.4985 13.6164 24.4985 0.291016C10.9683 0.291016 0 10.2343 0 22.5Z" fill="#11D17E"/>
<path d="M10.062 22.5002C10.062 30.2408 16.5255 36.5157 24.4986 36.5157C24.4986 28.9689 24.4986 30.2408 24.4986 22.5002C24.4986 14.7598 24.4986 17.1097 24.4986 8.48486C16.5255 8.48486 10.062 14.7598 10.062 22.5002Z" fill="#11D17E"/>
<path d="M10.062 22.5002C10.062 30.2408 16.5255 36.5157 24.4986 36.5157C24.4986 28.9689 24.4986 30.2408 24.4986 22.5002C24.4986 14.7598 24.4986 17.1097 24.4986 8.48486C16.5255 8.48486 10.062 14.7598 10.062 22.5002Z" fill="black" fill-opacity="0.15"/>
<path d="M16.624 22.7158C16.624 27.9555 20.8351 32.2032 26.0297 32.2032C31.2243 32.2032 35.4354 27.9555 35.4354 22.7158C35.4354 17.4761 31.2243 13.2285 26.0297 13.2285C20.8351 13.2285 16.624 17.4761 16.624 22.7158Z" fill="#B1F128"/>
<path d="M68.4956 9.71064V16.7212C66.0929 15.2686 63.4182 14.5422 60.4708 14.5422C57.876 14.5422 55.6976 15.4422 53.9356 17.2422C52.1737 19.0107 51.2927 21.3948 51.2927 24.3949C51.2927 27.3317 52.1737 29.6686 53.9356 31.4054C55.6976 33.1106 57.9721 33.9633 60.7591 33.9633C63.7702 33.9633 66.3494 33.2054 68.4956 31.6896V38.8422C66.5416 40.0422 63.7221 40.6422 60.0383 40.6422C55.2971 40.6422 51.3248 39.1422 48.1212 36.1422C44.9498 33.1106 43.364 29.1949 43.364 24.3949C43.364 19.5317 44.9017 15.5685 47.9771 12.5054C51.0845 9.44224 55.121 7.91064 60.0863 7.91064C63.7383 7.91064 66.5416 8.51062 68.4956 9.71064Z" fill="#000334"/>
<path d="M71.4749 24.2764C71.4749 33.1057 78.7356 40.2632 87.6927 40.2632C96.6497 40.2632 103.91 33.1057 103.91 24.2764C103.91 15.4471 96.6497 8.28955 87.6927 8.28955C78.7356 8.28955 71.4749 15.4471 71.4749 24.2764ZM96.7272 24.2764C96.7272 29.195 92.6824 33.1822 87.6927 33.1822C82.703 33.1822 78.6581 29.195 78.6581 24.2764C78.6581 19.3578 82.703 15.3705 87.6927 15.3705C92.6824 15.3705 96.7272 19.3578 96.7272 24.2764Z" fill="#000334"/>
<path d="M107.515 40.2633V8.33696H114.915V40.2633H107.515ZM121.628 40.2633V8.33696H129.749L137.294 21.5528C138.351 23.4159 139.264 25.1686 140.033 26.8106C140.833 28.4212 141.346 29.558 141.57 30.2212L141.955 31.2633C141.635 28.9264 141.474 25.6896 141.474 21.5528V8.33696H148.874V40.2633H140.753L133.017 27.0475C131.992 25.3422 131.079 23.6685 130.278 22.0264C129.509 20.3527 128.98 19.1212 128.692 18.3317L128.308 17.1475C128.788 19.9896 129.028 23.2896 129.028 27.0475V40.2633H121.628ZM179.064 9.71064V16.7212C176.661 15.2686 173.987 14.5422 171.039 14.5422C168.444 14.5422 166.266 15.4422 164.504 17.2422C162.742 19.0107 161.861 21.3948 161.861 24.3949C161.861 27.3317 162.742 29.6686 164.504 31.4054C166.266 33.1106 168.541 33.9633 171.328 33.9633C174.339 33.9633 176.918 33.2054 179.064 31.6896V38.8422C177.11 40.0422 174.291 40.6422 170.607 40.6422C165.866 40.6422 161.894 39.1422 158.69 36.1422C155.518 33.1106 153.932 29.1949 153.932 24.3949C153.932 19.5317 155.47 15.5685 158.546 12.5054C161.653 9.44224 165.69 7.91064 170.655 7.91064C174.307 7.91064 177.11 8.51062 179.064 9.71064Z" fill="#000334"/>
</svg>
